<?xml version="1.0" standalone="no"?>
<!DOCTYPE svg PUBLIC "-//W3C//DTD SVG 20010904//EN"
 "http://www.w3.org/TR/2001/REC-SVG-20010904/DTD/svg10.dtd">
<svg version="1.0" xmlns="http://www.w3.org/2000/svg"
 width="53.87" height="43.61" viewBox="400 30 10 800"
 preserveAspectRatio="xMidYMid meet">
<g transform="translate(0.000000,900.000000) scale(0.100000,-0.100000)"
fill="#00b4ff" stroke="none">
<path d="M1220 7899 c-25 -4 -74 -12 -110 -17 -36 -6 -90 -20 -120 -32 -30
-12 -66 -25 -80 -30 -39 -13 -92 -40 -127 -66 -17 -13 -36 -24 -42 -24 -5 0
-16 -6 -23 -13 -7 -7 -40 -33 -73 -59 -100 -76 -248 -247 -310 -358 -10 -19
-29 -53 -42 -75 -12 -22 -26 -47 -29 -55 -3 -8 -20 -44 -36 -80 -45 -97 -71
-162 -88 -225 -5 -16 -13 -43 -18 -60 -30 -88 -55 -201 -75 -335 -8 -53 -11
-629 -11 -1975 0 -1880 3 -2049 33 -2128 6 -16 11 -45 11 -65 1 -20 7 -48 15
-62 8 -14 14 -38 15 -53 0 -16 5 -38 12 -50 6 -12 15 -35 19 -52 24 -98 126
-330 181 -411 16 -23 28 -45 28 -49 0 -10 89 -124 146 -187 50 -55 181 -171
219 -195 90 -56 138 -83 149 -83 6 0 17 -5 24 -12 13 -13 72 -36 122 -48 19
-4 47 -12 63 -19 32 -13 3206 -17 3216 -4 3 4 3 357 0 783 -4 426 -7 1286 -8
1910 0 624 -1 1141 -1 1149 0 10 -9 12 -32 7 -18 -3 -545 -8 -1171 -11 l-1139
-6 0 -417 1 -417 570 0 c374 0 571 -3 571 -10 0 -5 0 -497 0 -1093 l1 -1084
-623 0 c-479 -1 -636 2 -678 12 -143 34 -293 175 -378 355 -19 39 -40 83 -48
98 -8 16 -14 38 -14 48 0 11 -5 30 -11 41 -16 30 -37 125 -56 248 -13 91 -16
328 -20 1750 -4 1500 -3 1657 12 1780 9 74 21 143 26 152 5 9 12 36 15 60 4
24 13 55 20 70 8 15 14 34 14 43 0 30 101 221 153 290 61 79 150 156 217 186
25 11 72 22 105 25 33 2 579 6 1213 7 l1154 3 1 427 2 427 -1460 -1 c-803 -1
-1480 -5 -1505 -10z m1129 -81 c14 -5 32 -6 40 -2 20 9 1560 17 1619 9 34 -5
47 -13 67 -43 l25 -37 -1 -255 c-1 -140 -4 -268 -8 -285 -12 -59 -11 -58 -611
-60 -1671 -5 -1669 -5 -1776 -45 -28 -10 -72 -33 -98 -52 -26 -18 -58 -40 -70
-48 -27 -19 -80 -79 -130 -147 -52 -73 -136 -241 -136 -272 0 -15 -6 -35 -13
-46 -8 -11 -19 -47 -26 -80 -7 -33 -19 -91 -28 -130 -21 -102 -34 -1293 -28
-2480 6 -1034 7 -1058 31 -1220 23 -155 98 -376 167 -490 48 -80 131 -172 197
-217 25 -18 47 -35 50 -39 7 -10 146 -55 195 -63 65 -11 1175 -7 1218 5 21 6
54 25 73 42 56 53 56 60 49 1152 -3 539 -6 994 -6 1011 1 24 -9 42 -40 72 -33
34 -48 42 -92 47 -29 3 -245 7 -482 8 -413 2 -432 3 -470 23 -30 16 -41 29
-47 55 -4 19 -7 148 -7 287 1 264 4 282 46 282 9 0 21 7 27 15 10 13 130 16
936 21 1077 8 937 7 1030 2 88 -6 111 -16 139 -61 l21 -34 0 -1757 c0 -1947 6
-1786 -64 -1824 -29 -16 -134 -17 -1496 -15 -806 1 -1487 5 -1515 8 -54 7 -76
14 -208 70 -48 21 -93 45 -100 54 -7 9 -36 29 -65 44 -53 29 -62 36 -160 131
-93 88 -182 211 -259 353 -33 62 -128 296 -144 353 -9 36 -24 81 -32 100 -9
20 -22 87 -31 150 -9 63 -23 149 -32 190 -15 68 -17 251 -20 1855 -2 1455 0
1797 11 1872 7 51 16 96 18 101 3 4 15 62 26 128 10 65 27 139 36 164 9 25 21
61 26 82 5 20 25 71 44 113 19 43 35 82 35 87 0 12 88 196 101 212 5 6 24 34
43 61 103 151 121 173 223 267 132 122 226 178 403 240 84 30 90 30 355 38
378 10 915 9 944 -2z"/>
<path d="M5625 7880 c-66 -3 -140 -11 -165 -18 -25 -6 -81 -18 -125 -27 -44
-9 -93 -23 -108 -31 -16 -8 -36 -14 -46 -14 -9 0 -26 -7 -37 -15 -10 -8 -26
-15 -35 -15 -9 0 -22 -7 -29 -15 -7 -8 -19 -15 -27 -15 -38 0 -293 -223 -293
-256 0 -7 -3 -14 -8 -16 -9 -4 -82 -126 -82 -138 0 -5 -6 -21 -14 -37 -8 -15
-21 -46 -29 -68 -8 -22 -20 -56 -27 -75 -7 -19 -16 -55 -20 -80 -4 -25 -13
-61 -19 -80 -6 -19 -11 -54 -11 -77 0 -23 -5 -54 -11 -70 -24 -62 -34 -372
-34 -1103 0 -848 5 -930 61 -1111 8 -26 14 -57 14 -70 0 -13 7 -33 15 -43 8
-11 15 -26 15 -33 0 -13 53 -134 71 -163 5 -8 13 -24 18 -35 5 -11 21 -37 35
-58 14 -21 26 -40 26 -43 0 -11 98 -121 145 -164 68 -62 128 -102 205 -138 81
-38 182 -72 212 -72 13 0 45 -7 72 -15 42 -13 202 -15 1135 -15 l1086 0 -2
-642 c-2 -377 -7 -660 -13 -684 -5 -23 -13 -75 -16 -115 -4 -41 -13 -83 -20
-94 -8 -11 -14 -31 -14 -45 0 -74 -114 -218 -205 -259 -89 -40 -127 -41 -1304
-41 -624 0 -1136 -1 -1138 -4 -10 -9 -8 -816 2 -816 6 0 669 0 1475 0 1256 0
1473 3 1520 15 30 8 75 15 100 15 25 0 58 7 74 15 15 8 40 15 55 15 14 1 37 7
51 15 14 8 37 14 51 15 15 0 32 7 39 15 7 8 19 15 26 15 16 0 92 39 100 51 3
5 12 9 20 9 20 0 151 109 199 166 97 116 195 309 225 444 4 19 13 48 19 63 6
16 11 43 11 62 0 19 5 46 11 62 7 15 16 71 20 123 5 52 13 145 18 205 14 151
13 4063 0 4210 -6 61 -14 151 -18 200 -5 50 -13 103 -20 118 -6 16 -11 43 -11
62 0 19 -5 46 -11 62 -6 15 -15 44 -19 63 -14 62 -85 244 -105 270 -7 8 -15
22 -19 30 -56 122 -221 276 -376 351 -25 12 -57 28 -72 35 -14 8 -35 14 -45
14 -10 0 -24 5 -31 12 -6 6 -30 15 -54 19 -94 18 -156 32 -208 47 -48 13 -184
16 -1120 17 -586 1 -1119 -1 -1185 -5z m2275 -93 c30 -9 69 -17 87 -17 17 0
35 -4 38 -10 3 -5 23 -10 44 -10 34 0 87 -17 171 -53 162 -70 399 -283 400
-359 0 -7 11 -23 25 -36 13 -13 27 -40 31 -60 4 -20 12 -44 18 -52 21 -27 44
-93 66 -195 12 -55 26 -113 31 -130 5 -16 16 -127 24 -245 13 -180 15 -527 15
-2178 0 -1212 -4 -1999 -10 -2056 -5 -50 -12 -125 -14 -166 -4 -83 -14 -133
-65 -340 -12 -47 -30 -97 -41 -112 -11 -15 -20 -38 -20 -51 0 -13 -13 -43 -30
-65 -16 -23 -30 -44 -30 -47 0 -11 -83 -120 -128 -167 -36 -38 -150 -128 -163
-128 -9 0 -29 -10 -45 -22 -28 -22 -154 -72 -154 -61 0 3 -6 1 -12 -4 -17 -13
-199 -54 -303 -69 -77 -10 -2771 -5 -2800 6 -53 20 -56 36 -55 316 0 213 3
261 15 274 8 9 15 21 15 27 0 6 8 15 18 19 9 5 498 10 1087 12 588 1 1078 5
1089 8 10 3 30 8 45 9 142 16 277 114 339 245 11 25 24 59 28 75 4 17 11 36
17 43 11 14 13 23 23 122 3 36 10 70 14 75 4 6 11 48 15 95 10 106 9 1180 -1
1235 -8 46 -41 86 -93 112 -34 17 -103 18 -1101 24 -681 4 -1083 10 -1115 16
-63 14 -212 68 -245 91 -14 9 -41 24 -60 34 -38 19 -190 160 -190 176 0 5 -7
15 -16 23 -18 15 -84 112 -84 124 0 4 -13 29 -29 55 -76 123 -147 372 -157
550 -8 128 -9 1547 -1 1670 8 147 23 263 43 341 8 30 14 65 14 77 0 47 83 267
120 319 17 23 30 44 30 48 0 20 107 146 157 185 157 122 281 175 490 210 28 4
57 11 63 15 29 18 269 22 1260 21 975 -2 1080 -4 1130 -19z"/>
<path d="M6235 7099 c-44 -5 -97 -16 -118 -24 -20 -8 -44 -15 -53 -15 -18 0
-108 -66 -151 -111 -17 -19 -41 -53 -53 -77 -12 -23 -26 -45 -31 -48 -5 -3 -9
-13 -9 -22 0 -9 -13 -51 -29 -92 -30 -81 -64 -275 -79 -455 -5 -60 -10 -303
-11 -540 -2 -493 12 -692 64 -892 29 -110 99 -213 170 -250 17 -9 32 -19 35
-22 22 -27 121 -31 813 -30 391 0 736 4 765 8 38 5 61 16 83 37 68 64 64 18
67 779 4 941 -6 1124 -72 1364 -41 151 -117 262 -212 311 -16 8 -35 21 -42 28
-7 6 -22 12 -33 12 -11 0 -29 4 -39 10 -10 5 -64 17 -119 25 -78 12 -187 15
-483 14 -211 -1 -419 -6 -463 -10z m975 -88 c81 -11 122 -27 183 -70 49 -36
127 -130 127 -154 0 -7 7 -22 15 -33 8 -10 15 -32 15 -49 0 -16 7 -41 15 -55
8 -14 14 -46 15 -72 0 -26 7 -78 15 -116 12 -58 14 -220 15 -962 l1 -892 -807
1 -808 1 -45 38 c-51 43 -110 150 -111 199 0 17 -5 44 -11 60 -7 15 -15 75
-20 133 -4 58 -13 143 -18 190 -17 134 -14 849 4 1005 8 72 15 155 15 186 0
31 7 76 15 99 8 23 15 56 15 72 0 41 40 164 71 218 5 8 13 24 18 36 15 34 100
111 150 135 25 13 69 26 96 29 74 10 959 10 1035 1z"/>
</g>
</svg>
